<svg width="16" height="16" viewBox="0 0 16 16" fill="none" xmlns="http://www.w3.org/2000/svg">
<rect width="16" height="16" fill="#FF5A0A"/>
<path d="M7.82129 5.17V2.10547L10.7968 4.42214C11.8272 5.23496 12.0226 6.41809 11.9985 6.38851C11.3276 5.54988 10.4317 5.18189 9.81492 5.17203L7.82129 5.17Z" fill="white" fill-opacity="0.6"/>
<path d="M9.76636 11.1151C9.76636 11.4757 9.45492 11.7717 9.10283 11.7717H7.20151V7.91873H9.10283C9.45712 7.91873 9.76636 8.21124 9.76636 8.57528V11.1151ZM7.21634 5.81936V2H5V13.9104H9.6381C10.9429 13.9104 12 12.7957 12 11.4198V8.30999C12 6.93406 10.9429 5.81936 9.6381 5.81936H7.21634Z" fill="white"/>
</svg>
